<svg width="33" height="32" viewBox="0 0 33 32" fill="none" xmlns="http://www.w3.org/2000/svg">
<path d="M30.58 16.3333C30.58 15.2933 30.4867 14.2933 30.3133 13.3333H16.5V19.0067H24.3933C24.0533 20.84 23.02 22.3933 21.4667 23.4333V27.1133H26.2067C28.98 24.56 30.58 20.8 30.58 16.3333Z" fill="#4285F4"/>
<path d="M16.5 30.6667C20.46 30.6667 23.78 29.3533 26.2067 27.1133L21.4667 23.4333C20.1533 24.3133 18.4733 24.8333 16.5 24.8333C12.68 24.8333 9.44667 22.2533 8.29334 18.7867H3.39334V22.5867C5.80667 27.38 10.7667 30.6667 16.5 30.6667Z" fill="#34A853"/>
<path d="M8.29333 18.7867C8 17.9067 7.83333 16.9667 7.83333 16C7.83333 15.0333 8 14.0933 8.29333 13.2133V9.41333H3.39333C2.36666 11.4571 1.83242 13.7128 1.83333 16C1.83333 18.3667 2.4 20.6067 3.39333 22.5867L8.29333 18.7867Z" fill="#FBBC05"/>
<path d="M16.5 7.16667C18.6533 7.16667 20.5867 7.90666 22.1067 9.36L26.3133 5.15333C23.7733 2.78667 20.4533 1.33333 16.5 1.33333C10.7667 1.33333 5.80667 4.62 3.39334 9.41333L8.29334 13.2133C9.44667 9.74667 12.68 7.16667 16.5 7.16667Z" fill="#EA4335"/>
</svg>
