<svg width="30" height="30" viewBox="0 0 30 30" fill="none" xmlns="http://www.w3.org/2000/svg">
<path d="M24.543 10.1038C24.5576 10.3155 24.5576 10.527 24.5576 10.7405C24.5576 17.2468 19.6044 24.7505 10.5476 24.7505V24.7468C7.87202 24.7505 5.25186 23.9842 3 22.5392C3.38906 22.586 3.78 22.6095 4.17188 22.6104C6.38946 22.6122 8.54326 21.8684 10.2872 20.4986C9.25968 20.4792 8.26393 20.1392 7.43914 19.5261C6.61436 18.913 6.00178 18.0575 5.68706 17.0792C6.42525 17.2217 7.18575 17.1922 7.91025 16.9942C5.613 16.5302 3.96038 14.5119 3.96038 12.168V12.1055C4.64518 12.487 5.41163 12.6984 6.19519 12.7218C4.03125 11.2758 3.36469 8.39753 4.67119 6.14735C5.90736 7.66847 7.44967 8.91255 9.19797 9.79877C10.9463 10.685 12.8614 11.1936 14.8191 11.2914C14.6239 10.4512 14.6528 9.57444 14.9028 8.74887C15.1528 7.92331 15.6152 7.17784 16.2437 6.58703C18.2269 4.72272 21.3459 4.81835 23.2101 6.8006C24.3128 6.58286 25.3703 6.17856 26.337 5.6051C25.9694 6.74523 25.2002 7.71304 24.1725 8.32853C25.1486 8.21345 26.1017 7.95208 27 7.55322C26.3392 8.54277 25.5072 9.40649 24.543 10.1038Z" fill="#1D9BF0"/>
</svg>
