<svg width="24" height="21" viewBox="0 0 24 21" fill="none" xmlns="http://www.w3.org/2000/svg">
<path fill-rule="evenodd" clip-rule="evenodd" d="M11.4285 19.5468C11.0629 19.9076 10.567 20.1103 10.0499 20.1103C9.53285 20.1103 9.03696 19.9076 8.67128 19.5468L0.871458 11.849C0.505898 11.4881 0.300537 10.9987 0.300537 10.4884C0.300537 9.97806 0.505898 9.48865 0.871458 9.12776L8.67128 1.42987C9.03905 1.07931 9.53161 0.885336 10.0429 0.889721C10.5542 0.894106 11.0432 1.0965 11.4048 1.45331C11.7663 1.81013 11.9714 2.29281 11.9758 2.7974C11.9803 3.30199 11.7837 3.78811 11.4285 4.15107L6.95727 8.56389H21.7496C22.2668 8.56389 22.7628 8.76664 23.1285 9.12755C23.4942 9.48846 23.6996 9.97796 23.6996 10.4884C23.6996 10.9988 23.4942 11.4883 23.1285 11.8492C22.7628 12.2101 22.2668 12.4128 21.7496 12.4128H6.95727L11.4285 16.8256C11.7941 17.1865 11.9994 17.6759 11.9994 18.1862C11.9994 18.6965 11.7941 19.186 11.4285 19.5468Z" fill="#FFC6BC"/>
</svg>
