<svg width="102" height="102" viewBox="0 0 102 102" fill="none" xmlns="http://www.w3.org/2000/svg">
<g clip-path="url(#clip0_4_2857)">
<mask id="mask0_4_2857" style="mask-type:luminance" maskUnits="userSpaceOnUse" x="15" y="15" width="72" height="72">
<path d="M31.3587 18.6456C31.751 18.4769 32.1384 18.318 32.5185 18.1686C41.3184 14.711 51.3546 13.935 60.2829 17.3826C61.7894 17.9644 63.2519 18.6597 64.6513 19.4659C80.987 28.8778 68.0751 35.903 70.1567 42.5664C72.2383 49.2299 78.5027 39.4638 83.931 44.5481C89.3592 49.6326 85.8384 85.3285 53.7524 86.7985C21.6667 88.2683 12.8857 55.6414 16.8772 51.0404C20.8684 46.4396 27.3112 52.5716 25.6877 44.8461C24.7928 40.587 21.4354 37.2916 20.3947 33.067C18.6181 25.8539 25.5037 21.1642 31.3587 18.6456Z" fill="white"/>
</mask>
<g mask="url(#mask0_4_2857)">
<path d="M51.4367 77.3689C73.7165 77.3689 91.7779 59.3076 91.7779 37.0277C91.7779 14.7479 73.7165 -3.31348 51.4367 -3.31348C29.1568 -3.31348 11.0955 14.7479 11.0955 37.0277C11.0955 59.3076 29.1568 77.3689 51.4367 77.3689Z" fill="#B3EBFF"/>
<path d="M88.6495 65.8483H15.0988V46.6502C39.3256 40.2248 63.8427 40.2271 88.6497 46.6502L88.6495 65.8483Z" fill="#3E737F"/>
<path d="M15.0988 58.1021V69.0387C15.0988 103.965 88.6497 103.965 88.6497 69.0387V58.1021C63.6118 50.4455 39.0994 50.5139 15.0988 58.1021Z" fill="#5BC279"/>
<path d="M92.6683 51.2059C66.1481 42.589 37.5807 42.589 11.0605 51.2059C10.9589 50.8932 10.8573 50.5805 10.7557 50.2678C37.474 41.5865 66.2548 41.5865 92.973 50.2678C92.8717 50.5805 92.7701 50.8932 92.6683 51.2059Z" fill="#29575E"/>
<path d="M92.0726 53.0394C65.9396 44.5483 37.7894 44.5483 11.6564 53.0394C11.5548 52.7267 11.4532 52.414 11.3514 52.1012C37.6825 43.5457 66.0463 43.5457 92.3774 52.1012C92.2758 52.414 92.1742 52.7267 92.0726 53.0394Z" fill="#29575E"/>
<path d="M91.4769 54.8733C65.731 46.508 37.9979 46.508 12.2522 54.8733C12.1507 54.5605 12.0491 54.2478 11.9473 53.9351C37.8912 45.5054 65.8377 45.5054 91.7816 53.9351C91.6801 54.2476 91.5785 54.5605 91.4769 54.8733Z" fill="#29575E"/>
<path d="M90.881 56.7066C65.5224 48.467 38.2064 48.467 12.8477 56.7066C12.7462 56.3939 12.6446 56.0811 12.543 55.7684C38.0997 47.4646 65.6291 47.4646 91.1858 55.7684C91.0842 56.0811 90.9826 56.3939 90.881 56.7066Z" fill="#29575E"/>
<path d="M10.4021 77.6181L9.67969 75.7103C19.8207 71.8711 30.391 69.4292 41.0971 68.4528C49.6618 67.6719 58.3314 67.8212 66.8662 68.8978C81.4167 70.7327 90.4055 74.5728 90.7809 74.7354L89.9708 76.6077C89.8809 76.569 80.8169 72.7034 66.5329 70.9118C53.3693 69.2607 32.9443 69.0838 10.4021 77.6181Z" fill="white"/>
<path d="M51.1112 75.056C57.9828 75.056 63.5534 72.8404 63.5534 70.1073C63.5534 67.3743 57.9828 65.1587 51.1112 65.1587C44.2396 65.1587 38.6691 67.3743 38.6691 70.1073C38.6691 72.8404 44.2396 75.056 51.1112 75.056Z" fill="white"/>
<g opacity="0.38">
<path d="M34.3964 65.0006C34.7022 64.8539 34.9011 64.769 34.9011 64.769C34.7209 64.8121 34.5528 64.8939 34.3964 65.0006Z" fill="black"/>
</g>
<path d="M78.6892 61.4122L78.6309 61.4689C78.6236 61.4761 78.635 61.4877 78.6423 61.4804C78.6613 61.461 78.6801 61.4414 78.699 61.422C78.7052 61.4155 78.6956 61.4059 78.6892 61.4122Z" fill="black"/>
<g opacity="0.38">
<path d="M79.9901 61.6759C79.8384 61.7128 79.6837 61.7389 79.5307 61.7701C79.3886 61.7991 79.2478 61.8344 79.1052 61.8613C78.9624 61.8882 78.8182 61.9037 78.6752 61.9286C78.526 61.9545 78.3728 61.9968 78.2288 62.0441C78.2098 62.0504 78.2064 62.0818 78.2288 62.0861C78.3716 62.1145 78.5224 62.1251 78.6676 62.1208C78.8229 62.1161 78.9865 62.0743 79.1378 62.0427C79.2904 62.0108 79.4436 61.9768 79.5911 61.9262C79.7388 61.8756 79.8777 61.8099 80.0195 61.745C80.0595 61.7267 80.0303 61.6661 79.9901 61.6759Z" fill="black"/>
</g>
<g opacity="0.38">
<path d="M78.3529 61.6629C78.3135 61.6603 78.2772 61.6438 78.2366 61.6389C78.1813 61.6319 78.1285 61.6356 78.073 61.633C77.9679 61.6281 77.862 61.6266 77.7564 61.6221C77.6503 61.6177 77.5448 61.6193 77.44 61.6262C77.3363 61.6332 77.2323 61.6193 77.1291 61.6356C77.1025 61.6399 77.0993 61.6807 77.1217 61.6923C77.2147 61.7407 77.3184 61.7564 77.4196 61.7774C77.4744 61.7888 77.5238 61.8019 77.5805 61.8059C77.6391 61.81 77.6978 61.8143 77.7566 61.8123C77.8675 61.8086 77.9728 61.798 78.0811 61.7778C78.135 61.7678 78.1878 61.7625 78.2394 61.7431C78.2602 61.7354 78.2843 61.7294 78.3035 61.7184C78.3229 61.7072 78.3329 61.6937 78.3561 61.685C78.3679 61.6809 78.3661 61.6638 78.3529 61.6629Z" fill="black"/>
</g>
<g opacity="0.38">
<path d="M76.6208 61.292C76.4746 61.2881 76.332 61.3083 76.1873 61.3299C76.1516 61.3352 76.1167 61.3389 76.0829 61.3516C76.0519 61.3632 76.0188 61.3695 75.9866 61.3775C75.9215 61.3932 75.8436 61.4101 75.7916 61.4542C75.7683 61.474 75.7846 61.5064 75.8077 61.5156C75.8668 61.5392 75.9444 61.5296 76.0066 61.5245C76.0439 61.5215 76.0798 61.5178 76.1167 61.5196C76.1533 61.5217 76.1914 61.5109 76.2273 61.5046C76.3666 61.4807 76.5031 61.455 76.6363 61.407C76.6973 61.3852 76.6896 61.2938 76.6208 61.292Z" fill="black"/>
</g>
<g opacity="0.38">
<path d="M46.1771 59.6384C46.1645 59.6366 46.1518 59.6362 46.1392 59.6368C46.1314 59.6203 46.1123 59.6127 46.0953 59.6117C45.8256 59.5931 45.5623 59.6446 45.3044 59.7225C45.0551 59.7978 44.8152 59.9255 44.6204 60.0976C44.6 60.1156 44.6216 60.1484 44.6461 60.1419C44.8901 60.0756 45.1312 59.9958 45.3724 59.9175C45.6149 59.8388 45.8648 59.7839 46.1088 59.7117C46.1253 59.7068 46.1402 59.6935 46.1443 59.6762C46.1569 59.6782 46.1694 59.6764 46.1814 59.6703C46.1998 59.6654 46.1947 59.6397 46.1771 59.6384Z" fill="black"/>
</g>
<g opacity="0.38">
<path d="M44.7452 59.6152C44.5747 59.5799 44.4082 59.5828 44.2393 59.6303C44.0726 59.6772 43.9304 59.7906 43.8138 59.9149C43.7997 59.9298 43.8176 59.9546 43.836 59.9438C43.9743 59.862 44.1253 59.8149 44.2746 59.7586C44.4233 59.7025 44.5847 59.6595 44.7418 59.6401C44.7546 59.6384 44.7603 59.6184 44.7452 59.6152Z" fill="black"/>
</g>
<g opacity="0.38">
<path d="M42.6179 59.7208C42.6069 59.7218 42.5944 59.7212 42.584 59.7243C42.5718 59.7275 42.5601 59.7351 42.5487 59.7406C42.5306 59.7496 42.512 59.7596 42.4922 59.7645C42.4636 59.7683 42.4379 59.7824 42.4088 59.7922C42.3743 59.8038 42.3394 59.8153 42.3045 59.8251C42.2729 59.8338 42.2368 59.8414 42.2072 59.8457C42.1909 59.8481 42.1701 59.8526 42.1515 59.8569C42.1399 59.8595 42.1319 59.8644 42.124 59.8695C42.1107 59.8734 42.0967 59.8759 42.083 59.8779C42.0395 59.884 42.0432 59.953 42.083 59.9622C42.0962 59.9652 42.1097 59.9677 42.123 59.9713C42.1599 59.9952 42.2233 59.9876 42.2613 59.9825C42.3115 59.9758 42.3641 59.9677 42.4116 59.9497C42.4365 59.9403 42.4612 59.9289 42.4851 59.9171C42.5118 59.9036 42.5424 59.8905 42.5595 59.8653C42.5548 59.872 42.5526 59.8706 42.5605 59.8646C42.5669 59.8599 42.573 59.855 42.5793 59.8502C42.5883 59.8432 42.5973 59.8361 42.606 59.8285C42.6287 59.8094 42.6409 59.792 42.6513 59.7645C42.6585 59.7445 42.6389 59.7188 42.6179 59.7208Z" fill="black"/>
</g>
<g opacity="0.38">
<path d="M37.3279 54.7767C37.2236 54.7598 37.122 54.7428 37.0163 54.7553C36.907 54.7683 36.8032 54.7979 36.7014 54.8393C36.6534 54.8589 36.6043 54.8783 36.5592 54.9042C36.51 54.9323 36.4872 54.957 36.4429 54.988C36.3556 55.0492 36.2789 55.1166 36.2185 55.2049C36.2059 55.2234 36.2299 55.2412 36.2469 55.2332C36.3352 55.191 36.4203 55.1427 36.5084 55.0998C36.5547 55.0774 36.5765 55.0764 36.6241 55.0578C36.6712 55.0396 36.7171 55.0188 36.7648 55.0021C36.8544 54.9707 36.947 54.9462 37.0392 54.9232C37.1359 54.8989 37.2299 54.8648 37.3281 54.8477C37.3627 54.8416 37.3631 54.7824 37.3279 54.7767Z" fill="black"/>
</g>
<g opacity="0.38">
<path d="M35.6403 54.93C35.6197 54.9041 35.5866 54.8984 35.5572 54.9135C35.5032 54.9413 35.4499 54.968 35.3991 55.0012C35.3753 55.0169 35.3512 55.0327 35.3273 55.0484C35.3147 55.0567 35.302 55.0649 35.2894 55.0733C35.2708 55.0855 35.2596 55.099 35.2506 55.1155C35.2278 55.1353 35.2049 55.1551 35.1821 55.1746C35.1568 55.1965 35.1358 55.2189 35.1144 55.2446C35.0976 55.2646 35.1129 55.2987 35.1411 55.2907C35.1752 55.2811 35.2062 55.2701 35.2384 55.255C35.2639 55.2432 35.2896 55.2311 35.3151 55.2193C35.3306 55.2191 35.3455 55.2167 35.362 55.2067C35.3749 55.1989 35.3875 55.1903 35.4002 55.1824C35.4269 55.1653 35.4536 55.1483 35.4801 55.1312C35.5348 55.0963 35.5844 55.0551 35.635 55.0147C35.6601 54.9947 35.6584 54.9527 35.6403 54.93Z" fill="black"/>
</g>
<g opacity="0.38">
<path d="M34.1277 55.3319C34.1055 55.3096 34.0755 55.3143 34.053 55.3319C33.9875 55.3827 33.9257 55.4375 33.8664 55.4953C33.8496 55.5116 33.8333 55.5273 33.8192 55.5459C33.8072 55.5618 33.7952 55.5779 33.7831 55.594C33.7705 55.6109 33.7617 55.6264 33.7535 55.646C33.7452 55.6654 33.7354 55.6842 33.7256 55.7029C33.715 55.7235 33.7362 55.745 33.757 55.7344C33.7925 55.7162 33.8315 55.7027 33.8633 55.6787C33.8794 55.6666 33.8955 55.6546 33.9114 55.6424C33.931 55.6275 33.9476 55.6107 33.9647 55.5932C34.0224 55.5336 34.0771 55.4718 34.1281 55.4063C34.1452 55.3841 34.1497 55.3537 34.1277 55.3319Z" fill="black"/>
</g>
<g opacity="0.38">
<path d="M30.0075 60.003C29.8749 60.0153 29.7384 60.0167 29.6079 60.0418C29.4661 60.0689 29.3315 60.1028 29.1958 60.1534C29.0681 60.2011 28.9351 60.2607 28.8227 60.3384C28.7211 60.4084 28.566 60.4808 28.5187 60.6014C28.5053 60.6358 28.5399 60.6779 28.5752 60.6756C28.694 60.6681 28.8057 60.5636 28.91 60.5122C29.0306 60.4526 29.1497 60.3902 29.2709 60.3313C29.3884 60.2741 29.5093 60.2178 29.6311 60.1717C29.7576 60.1238 29.8794 60.0693 30.0126 60.0393C30.0322 60.0346 30.0283 60.001 30.0075 60.003Z" fill="black"/>
</g>
<g opacity="0.38">
<path d="M28.1655 60.2213C28.1582 60.2207 28.1508 60.2203 28.1435 60.2199C28.1421 60.2199 28.1272 60.2191 28.1321 60.2201C28.1229 60.2182 28.1076 60.2115 28.0913 60.2131C28.0623 60.216 28.0333 60.2205 28.0048 60.2262C27.9489 60.2278 27.891 60.2562 27.8426 60.2792C27.7824 60.308 27.7304 60.3437 27.681 60.3888C27.6325 60.4331 27.5968 60.4822 27.5656 60.54C27.5352 60.5961 27.5087 60.6617 27.5044 60.726C27.5013 60.7715 27.5686 60.8019 27.5984 60.765C27.6182 60.7407 27.6333 60.7138 27.6537 60.6903C27.6776 60.663 27.6882 60.6428 27.7133 60.615C27.7192 60.6085 27.7255 60.6024 27.7314 60.5956C27.7382 60.5893 27.7394 60.5879 27.7357 60.591C27.7388 60.5885 27.7435 60.585 27.7518 60.5785C27.7622 60.5683 27.771 60.5557 27.781 60.5448C27.804 60.5198 27.8287 60.4963 27.8548 60.4743C27.9058 60.4314 27.9411 60.3996 28.0013 60.3657C28.0297 60.3498 28.0548 60.3302 28.0841 60.3168C28.098 60.3105 28.1149 60.3064 28.1278 60.2984C28.1443 60.2884 28.1535 60.2797 28.1725 60.2725C28.2006 60.2629 28.1961 60.2233 28.1655 60.2213Z" fill="black"/>
</g>
<g opacity="0.38">
<path d="M26.5281 60.6182C26.5044 60.6007 26.4744 60.6031 26.4526 60.6227C26.4326 60.6407 26.4124 60.6588 26.3924 60.677C26.3836 60.685 26.3751 60.6939 26.3657 60.7011C26.3557 60.7086 26.3426 60.7158 26.3326 60.7251C26.2937 60.7621 26.2578 60.8031 26.2207 60.8418C26.2003 60.863 26.1786 60.8832 26.1652 60.9098C26.1531 60.9332 26.1366 60.9542 26.1215 60.9759C26.1072 60.9963 26.0919 61.0162 26.0793 61.0377C26.0642 61.063 26.0485 61.0848 26.0491 61.1152C26.0495 61.1315 26.0636 61.1487 26.0813 61.1474C26.1111 61.1452 26.1274 61.1325 26.1511 61.1154C26.1743 61.0985 26.196 61.0799 26.218 61.0611C26.2351 61.0464 26.2588 61.0252 26.2725 61.0167C26.2996 60.9993 26.3182 60.9773 26.339 60.9534C26.3734 60.9136 26.4083 60.8745 26.4422 60.8343C26.4614 60.8114 26.475 60.7839 26.493 60.7598C26.5097 60.7374 26.5264 60.7149 26.5434 60.6925C26.5599 60.6697 26.5489 60.6337 26.5281 60.6182Z" fill="black"/>
</g>
<g opacity="0.38">
<path d="M73.2893 55.701C73.1428 55.6749 73.0003 55.6423 72.8501 55.6372C72.6877 55.6317 72.5286 55.6325 72.3674 55.6537C72.069 55.6931 71.7404 55.7632 71.4884 55.937C71.4599 55.9568 71.4672 56.0101 71.5076 56.0076C71.7993 55.9909 72.0908 55.9115 72.3793 55.8652C72.6785 55.8173 72.9829 55.7583 73.2848 55.7349C73.3028 55.7334 73.3097 55.7045 73.2893 55.701Z" fill="black"/>
</g>
<g opacity="0.38">
<path d="M71.5609 55.3945C71.4925 55.3964 71.4265 55.3996 71.3591 55.4123C71.2939 55.4245 71.2253 55.4325 71.1617 55.4515C71.0945 55.4715 71.0236 55.4906 70.9599 55.5202C70.8989 55.5488 70.8191 55.5839 70.7953 55.6504C70.8016 55.6396 70.8079 55.6287 70.8142 55.6177C70.792 55.6398 70.7706 55.6577 70.7598 55.6875C70.7514 55.7107 70.7696 55.7318 70.7894 55.7397C70.8136 55.7493 70.8408 55.7444 70.8663 55.7436C70.8538 55.7403 70.8414 55.7369 70.8289 55.7336C70.8699 55.7515 70.9018 55.7481 70.9436 55.7367C70.9754 55.7279 71.0089 55.7216 71.0401 55.7109C71.1011 55.6901 71.1604 55.663 71.221 55.6408C71.282 55.6181 71.3398 55.5877 71.401 55.5649C71.4642 55.5412 71.5236 55.5121 71.585 55.4843C71.6296 55.4643 71.6064 55.3933 71.5609 55.3945Z" fill="black"/>
</g>
<g opacity="0.38">
<path d="M70.1248 55.3103C70.0995 55.304 70.0798 55.303 70.0538 55.3073C70.0332 55.3108 70.0124 55.314 69.992 55.3183C69.9502 55.3269 69.909 55.3444 69.8686 55.3579C69.8278 55.3715 69.786 55.3836 69.7462 55.3997C69.726 55.4079 69.7066 55.4181 69.6871 55.4276C69.6665 55.4378 69.6448 55.446 69.6301 55.4646C69.6099 55.4901 69.6155 55.5272 69.6495 55.5376C69.6732 55.5447 69.695 55.54 69.7187 55.5364C69.7393 55.5331 69.7603 55.5309 69.7809 55.5268C69.8229 55.5184 69.8643 55.5031 69.9053 55.4911C69.9463 55.4791 69.9902 55.4699 70.0294 55.4533C70.0496 55.4448 70.0696 55.4352 70.0895 55.426C70.1122 55.4156 70.1281 55.4044 70.1446 55.3854C70.1658 55.3605 70.1593 55.3191 70.1248 55.3103Z" fill="black"/>
</g>
<path d="M77.1558 35.697L76.9119 35.6416L76.5364 37.2954L76.7803 37.3508L77.1558 35.697Z" fill="#3E737F"/>
<path d="M76.854 37.0251L76.6101 36.9697L74.6528 45.591L74.8967 45.6464L76.854 37.0251Z" fill="#3E737F"/>
<path d="M79.7862 37.3778L73.9131 36.0444L73.8454 36.3426L79.7185 37.676L79.7862 37.3778Z" fill="#3E737F"/>
<path d="M73.9248 36.5728C74.2242 36.5728 74.4669 36.3302 74.4669 36.0308C74.4669 35.7314 74.2242 35.4888 73.9248 35.4888C73.6255 35.4888 73.3828 35.7314 73.3828 36.0308C73.3828 36.3302 73.6255 36.5728 73.9248 36.5728Z" fill="#3E737F"/>
<path d="M73.9215 36.4454C74.1428 36.4454 74.3222 36.266 74.3222 36.0447C74.3222 35.8234 74.1428 35.644 73.9215 35.644C73.7003 35.644 73.5209 35.8234 73.5209 36.0447C73.5209 36.266 73.7003 36.4454 73.9215 36.4454Z" fill="white"/>
<path d="M75.3886 36.9053C75.6879 36.9053 75.9306 36.6627 75.9306 36.3633C75.9306 36.064 75.6879 35.8213 75.3886 35.8213C75.0892 35.8213 74.8466 36.064 74.8466 36.3633C74.8466 36.6627 75.0892 36.9053 75.3886 36.9053Z" fill="#3E737F"/>
<path d="M75.3855 36.7779C75.6068 36.7779 75.7862 36.5985 75.7862 36.3772C75.7862 36.1559 75.6068 35.9766 75.3855 35.9766C75.1642 35.9766 74.9849 36.1559 74.9849 36.3772C74.9849 36.5985 75.1642 36.7779 75.3855 36.7779Z" fill="white"/>
<path d="M76.8524 37.2374C77.1518 37.2374 77.3945 36.9947 77.3945 36.6953C77.3945 36.396 77.1518 36.1533 76.8524 36.1533C76.5531 36.1533 76.3104 36.396 76.3104 36.6953C76.3104 36.9947 76.5531 37.2374 76.8524 37.2374Z" fill="#3E737F"/>
<path d="M76.8494 37.1099C77.0707 37.1099 77.25 36.9305 77.25 36.7093C77.25 36.488 77.0707 36.3086 76.8494 36.3086C76.6281 36.3086 76.4487 36.488 76.4487 36.7093C76.4487 36.9305 76.6281 37.1099 76.8494 37.1099Z" fill="white"/>
<path d="M78.3163 37.5699C78.6157 37.5699 78.8583 37.3272 78.8583 37.0279C78.8583 36.7285 78.6157 36.4858 78.3163 36.4858C78.017 36.4858 77.7743 36.7285 77.7743 37.0279C77.7743 37.3272 78.017 37.5699 78.3163 37.5699Z" fill="#3E737F"/>
<path d="M78.3133 37.4424C78.5345 37.4424 78.7139 37.263 78.7139 37.0418C78.7139 36.8205 78.5345 36.6411 78.3133 36.6411C78.092 36.6411 77.9126 36.8205 77.9126 37.0418C77.9126 37.263 78.092 37.4424 78.3133 37.4424Z" fill="white"/>
<path d="M79.7803 37.9019C80.0797 37.9019 80.3223 37.6593 80.3223 37.3599C80.3223 37.0605 80.0797 36.8179 79.7803 36.8179C79.481 36.8179 79.2383 37.0605 79.2383 37.3599C79.2383 37.6593 79.481 37.9019 79.7803 37.9019Z" fill="#3E737F"/>
<path d="M79.7772 37.7745C79.9985 37.7745 80.1779 37.5951 80.1779 37.3738C80.1779 37.1525 79.9985 36.9731 79.7772 36.9731C79.556 36.9731 79.3766 37.1525 79.3766 37.3738C79.3766 37.5951 79.556 37.7745 79.7772 37.7745Z" fill="white"/>
<path d="M80.1125 35.9408L74.2394 34.6074L74.1717 34.9056L80.0448 36.239L80.1125 35.9408Z" fill="#3E737F"/>
<path d="M74.251 35.1358C74.5504 35.1358 74.793 34.8931 74.793 34.5938C74.793 34.2944 74.5504 34.0518 74.251 34.0518C73.9517 34.0518 73.709 34.2944 73.709 34.5938C73.709 34.8931 73.9517 35.1358 74.251 35.1358Z" fill="#3E737F"/>
<path d="M74.2477 35.0079C74.469 35.0079 74.6484 34.8285 74.6484 34.6072C74.6484 34.3859 74.469 34.2065 74.2477 34.2065C74.0264 34.2065 73.847 34.3859 73.847 34.6072C73.847 34.8285 74.0264 35.0079 74.2477 35.0079Z" fill="white"/>
<path d="M75.7148 35.4683C76.0141 35.4683 76.2568 35.2257 76.2568 34.9263C76.2568 34.627 76.0141 34.3843 75.7148 34.3843C75.4154 34.3843 75.1727 34.627 75.1727 34.9263C75.1727 35.2257 75.4154 35.4683 75.7148 35.4683Z" fill="#3E737F"/>
<path d="M75.7117 35.3404C75.933 35.3404 76.1123 35.161 76.1123 34.9397C76.1123 34.7184 75.933 34.5391 75.7117 34.5391C75.4904 34.5391 75.311 34.7184 75.311 34.9397C75.311 35.161 75.4904 35.3404 75.7117 35.3404Z" fill="white"/>
<path d="M77.1786 35.8004C77.478 35.8004 77.7207 35.5577 77.7207 35.2583C77.7207 34.959 77.478 34.7163 77.1786 34.7163C76.8793 34.7163 76.6366 34.959 76.6366 35.2583C76.6366 35.5577 76.8793 35.8004 77.1786 35.8004Z" fill="#3E737F"/>
<path d="M77.1756 35.6724C77.3968 35.6724 77.5762 35.493 77.5762 35.2718C77.5762 35.0505 77.3968 34.8711 77.1756 34.8711C76.9543 34.8711 76.7749 35.0505 76.7749 35.2718C76.7749 35.493 76.9543 35.6724 77.1756 35.6724Z" fill="white"/>
<path d="M78.6425 36.1329C78.9418 36.1329 79.1845 35.8902 79.1845 35.5909C79.1845 35.2915 78.9418 35.0488 78.6425 35.0488C78.3431 35.0488 78.1005 35.2915 78.1005 35.5909C78.1005 35.8902 78.3431 36.1329 78.6425 36.1329Z" fill="#3E737F"/>
<path d="M78.6394 36.0049C78.8607 36.0049 79.0401 35.8255 79.0401 35.6043C79.0401 35.383 78.8607 35.2036 78.6394 35.2036C78.4181 35.2036 78.2388 35.383 78.2388 35.6043C78.2388 35.8255 78.4181 36.0049 78.6394 36.0049Z" fill="white"/>
<path d="M80.1065 36.4649C80.4058 36.4649 80.6485 36.2222 80.6485 35.9229C80.6485 35.6235 80.4058 35.3809 80.1065 35.3809C79.8071 35.3809 79.5645 35.6235 79.5645 35.9229C79.5645 36.2222 79.8071 36.4649 80.1065 36.4649Z" fill="#3E737F"/>
<path d="M80.1034 36.337C80.3247 36.337 80.5041 36.1576 80.5041 35.9363C80.5041 35.715 80.3247 35.5356 80.1034 35.5356C79.8821 35.5356 79.7028 35.715 79.7028 35.9363C79.7028 36.1576 79.8821 36.337 80.1034 36.337Z" fill="white"/>
<path d="M27.5493 37.3488L27.7932 37.2935L27.4178 35.6397L27.1739 35.695L27.5493 37.3488Z" fill="#3E737F"/>
<path d="M29.4325 45.6442L29.6764 45.5889L27.7191 36.9676L27.4752 37.0229L29.4325 45.6442Z" fill="#3E737F"/>
<path d="M24.6109 37.6742L30.484 36.3408L30.4163 36.0426L24.5432 37.376L24.6109 37.6742Z" fill="#3E737F"/>
<path d="M30.4056 36.5728C30.7049 36.5728 30.9476 36.3302 30.9476 36.0308C30.9476 35.7314 30.7049 35.4888 30.4056 35.4888C30.1062 35.4888 29.8635 35.7314 29.8635 36.0308C29.8635 36.3302 30.1062 36.5728 30.4056 36.5728Z" fill="#3E737F"/>
<path d="M30.4086 36.4454C30.6299 36.4454 30.8092 36.266 30.8092 36.0447C30.8092 35.8234 30.6299 35.644 30.4086 35.644C30.1873 35.644 30.0079 35.8234 30.0079 36.0447C30.0079 36.266 30.1873 36.4454 30.4086 36.4454Z" fill="white"/>
<path d="M28.9417 36.9053C29.241 36.9053 29.4837 36.6627 29.4837 36.3633C29.4837 36.064 29.241 35.8213 28.9417 35.8213C28.6423 35.8213 28.3997 36.064 28.3997 36.3633C28.3997 36.6627 28.6423 36.9053 28.9417 36.9053Z" fill="#3E737F"/>
<path d="M28.9447 36.7779C29.166 36.7779 29.3454 36.5985 29.3454 36.3772C29.3454 36.1559 29.166 35.9766 28.9447 35.9766C28.7234 35.9766 28.5441 36.1559 28.5441 36.3772C28.5441 36.5985 28.7234 36.7779 28.9447 36.7779Z" fill="white"/>
<path d="M27.4778 37.2374C27.7772 37.2374 28.0198 36.9947 28.0198 36.6953C28.0198 36.396 27.7772 36.1533 27.4778 36.1533C27.1785 36.1533 26.9358 36.396 26.9358 36.6953C26.9358 36.9947 27.1785 37.2374 27.4778 37.2374Z" fill="#3E737F"/>
<path d="M27.4809 37.1099C27.7021 37.1099 27.8815 36.9305 27.8815 36.7093C27.8815 36.488 27.7021 36.3086 27.4809 36.3086C27.2596 36.3086 27.0802 36.488 27.0802 36.7093C27.0802 36.9305 27.2596 37.1099 27.4809 37.1099Z" fill="white"/>
<path d="M26.0138 37.5699C26.3132 37.5699 26.5559 37.3272 26.5559 37.0279C26.5559 36.7285 26.3132 36.4858 26.0138 36.4858C25.7145 36.4858 25.4718 36.7285 25.4718 37.0279C25.4718 37.3272 25.7145 37.5699 26.0138 37.5699Z" fill="#3E737F"/>
<path d="M26.0169 37.4424C26.2381 37.4424 26.4175 37.263 26.4175 37.0418C26.4175 36.8205 26.2381 36.6411 26.0169 36.6411C25.7956 36.6411 25.6162 36.8205 25.6162 37.0418C25.6162 37.263 25.7956 37.4424 26.0169 37.4424Z" fill="white"/>
<path d="M24.55 37.9019C24.8493 37.9019 25.092 37.6593 25.092 37.3599C25.092 37.0605 24.8493 36.8179 24.55 36.8179C24.2506 36.8179 24.0079 37.0605 24.0079 37.3599C24.0079 37.6593 24.2506 37.9019 24.55 37.9019Z" fill="#3E737F"/>
<path d="M24.5532 37.7745C24.7745 37.7745 24.9539 37.5951 24.9539 37.3738C24.9539 37.1525 24.7745 36.9731 24.5532 36.9731C24.332 36.9731 24.1526 37.1525 24.1526 37.3738C24.1526 37.5951 24.332 37.7745 24.5532 37.7745Z" fill="white"/>
<path d="M24.2847 36.2367L30.1578 34.9033L30.0901 34.6051L24.217 35.9385L24.2847 36.2367Z" fill="#3E737F"/>
<path d="M30.0794 35.1358C30.3787 35.1358 30.6214 34.8931 30.6214 34.5938C30.6214 34.2944 30.3787 34.0518 30.0794 34.0518C29.78 34.0518 29.5374 34.2944 29.5374 34.5938C29.5374 34.8931 29.78 35.1358 30.0794 35.1358Z" fill="#3E737F"/>
<path d="M30.0824 35.0079C30.3037 35.0079 30.4831 34.8285 30.4831 34.6072C30.4831 34.3859 30.3037 34.2065 30.0824 34.2065C29.8611 34.2065 29.6818 34.3859 29.6818 34.6072C29.6818 34.8285 29.8611 35.0079 30.0824 35.0079Z" fill="white"/>
<path d="M28.6154 35.4683C28.9147 35.4683 29.1574 35.2257 29.1574 34.9263C29.1574 34.627 28.9147 34.3843 28.6154 34.3843C28.316 34.3843 28.0734 34.627 28.0734 34.9263C28.0734 35.2257 28.316 35.4683 28.6154 35.4683Z" fill="#3E737F"/>
<path d="M28.6184 35.3404C28.8397 35.3404 29.0191 35.161 29.0191 34.9397C29.0191 34.7184 28.8397 34.5391 28.6184 34.5391C28.3972 34.5391 28.2178 34.7184 28.2178 34.9397C28.2178 35.161 28.3972 35.3404 28.6184 35.3404Z" fill="white"/>
<path d="M27.1515 35.8004C27.4509 35.8004 27.6936 35.5577 27.6936 35.2583C27.6936 34.959 27.4509 34.7163 27.1515 34.7163C26.8522 34.7163 26.6095 34.959 26.6095 35.2583C26.6095 35.5577 26.8522 35.8004 27.1515 35.8004Z" fill="#3E737F"/>
<path d="M27.1546 35.6724C27.3758 35.6724 27.5552 35.493 27.5552 35.2718C27.5552 35.0505 27.3758 34.8711 27.1546 34.8711C26.9333 34.8711 26.7539 35.0505 26.7539 35.2718C26.7539 35.493 26.9333 35.6724 27.1546 35.6724Z" fill="white"/>
<path d="M25.6877 36.1329C25.987 36.1329 26.2297 35.8902 26.2297 35.5909C26.2297 35.2915 25.987 35.0488 25.6877 35.0488C25.3883 35.0488 25.1456 35.2915 25.1456 35.5909C25.1456 35.8902 25.3883 36.1329 25.6877 36.1329Z" fill="#3E737F"/>
<path d="M25.6907 36.0049C25.912 36.0049 26.0914 35.8255 26.0914 35.6043C26.0914 35.383 25.912 35.2036 25.6907 35.2036C25.4694 35.2036 25.29 35.383 25.29 35.6043C25.29 35.8255 25.4694 36.0049 25.6907 36.0049Z" fill="white"/>
<path d="M24.2239 36.4649C24.5233 36.4649 24.7659 36.2222 24.7659 35.9229C24.7659 35.6235 24.5233 35.3809 24.2239 35.3809C23.9246 35.3809 23.6819 35.6235 23.6819 35.9229C23.6819 36.2222 23.9246 36.4649 24.2239 36.4649Z" fill="#3E737F"/>
<path d="M24.227 36.337C24.4482 36.337 24.6276 36.1576 24.6276 35.9363C24.6276 35.715 24.4482 35.5356 24.227 35.5356C24.0057 35.5356 23.8263 35.715 23.8263 35.9363C23.8263 36.1576 24.0057 36.337 24.227 36.337Z" fill="white"/>
<g opacity="0.38">
<path d="M68.3824 67.5505C68.2243 67.5262 68.0649 67.5232 67.9052 67.5301C67.8342 67.5332 67.7628 67.5405 67.6924 67.5505C67.6522 67.5564 67.6218 67.5707 67.5837 67.5815C67.5433 67.5931 67.498 67.5946 67.4564 67.6007C67.3044 67.6229 67.1567 67.6631 67.0111 67.711C66.8789 67.7545 66.6994 67.8035 66.62 67.9275C66.6023 67.9552 66.618 68.0048 66.6537 68.0101C66.792 68.0305 66.9378 67.9522 67.0657 67.9089C67.201 67.863 67.3393 67.8273 67.477 67.7898C67.6153 67.7523 67.7591 67.7496 67.9017 67.7302C68.0554 67.7092 68.2096 67.7015 68.3638 67.6878C68.4358 67.6817 68.4664 67.5633 68.3824 67.5505Z" fill="black"/>
</g>
<g opacity="0.38">
<path d="M66.853 67.344C66.8189 67.2968 66.7958 67.2848 66.7395 67.2734C66.7042 67.2662 66.6685 67.2595 66.633 67.254C66.5478 67.2407 66.4537 67.2599 66.3691 67.2728C66.2887 67.285 66.2075 67.2999 66.1306 67.3268C66.0657 67.3497 65.9758 67.3737 65.929 67.4302C65.8611 67.4666 65.795 67.5059 65.7316 67.5498C65.6657 67.5951 65.7218 67.6855 65.793 67.6551C65.8578 67.6273 65.9245 67.6045 65.9921 67.5841C66.0567 67.5914 66.13 67.5586 66.1904 67.5441C66.2636 67.5265 66.336 67.5063 66.4101 67.4923C66.4835 67.4782 66.56 67.4774 66.6328 67.4615C66.6657 67.4543 66.6975 67.4435 66.7304 67.437C66.7842 67.4262 66.8109 67.4198 66.8485 67.3762C66.856 67.3676 66.8601 67.3537 66.853 67.344Z" fill="black"/>
</g>
<g opacity="0.38">
<path d="M64.6687 67.3055C64.6534 67.2708 64.6114 67.2443 64.5724 67.2582C64.4884 67.2883 64.4084 67.3267 64.3272 67.3638C64.2893 67.3814 64.2526 67.4001 64.2159 67.4201C64.1824 67.4385 64.1391 67.4573 64.1169 67.4901C64.1075 67.4985 64.0926 67.505 64.0824 67.5109C64.0675 67.5197 64.0524 67.5282 64.0376 67.537C63.9874 67.5664 64.0204 67.6541 64.0784 67.6337C64.0945 67.628 64.1108 67.6223 64.1269 67.6164C64.1383 67.6123 64.1549 67.6025 64.1669 67.6017C64.2038 67.6064 64.2395 67.5892 64.2758 67.5754C64.3203 67.5582 64.364 67.5407 64.407 67.5205C64.4841 67.4842 64.5616 67.4497 64.6355 67.4071C64.6702 67.3871 64.6848 67.342 64.6687 67.3055Z" fill="black"/>
</g>
<g opacity="0.38">
<path d="M48.3377 66.7047C47.8881 66.7367 47.4766 66.8344 47.0611 67.0117C46.6612 67.1822 46.2594 67.433 45.9733 67.7655C45.9554 67.7863 45.9774 67.8159 46.0025 67.8034C46.1971 67.7069 46.3787 67.5886 46.5778 67.5003C46.7679 67.4158 46.9489 67.3095 47.1388 67.2233C47.5262 67.047 47.9385 66.8938 48.3475 66.7771C48.3861 66.7661 48.3801 66.7018 48.3377 66.7047Z" fill="black"/>
</g>
<g opacity="0.38">
<path d="M46.3664 66.8641C46.3422 66.8725 46.3273 66.8662 46.3056 66.8686C46.2808 66.8715 46.2549 66.8843 46.2316 66.8929C46.1739 66.9139 46.1137 66.9278 46.057 66.9506C45.9501 66.9935 45.8477 67.0544 45.7446 67.1061C45.6392 67.1591 45.5353 67.2119 45.4342 67.2731C45.3821 67.3045 45.3305 67.3343 45.2832 67.3723C45.2424 67.4051 45.1894 67.4363 45.1643 67.4828C45.1563 67.4975 45.1665 67.5124 45.182 67.5141C45.2353 67.5196 45.2938 67.493 45.3444 67.4773C45.4025 67.4592 45.457 67.4323 45.5125 67.4072C45.6202 67.3584 45.7226 67.3027 45.8262 67.2458C45.9276 67.1901 46.0394 67.1405 46.1337 67.0736C46.1851 67.0371 46.233 66.9961 46.2844 66.9592C46.3016 66.9467 46.3214 66.9357 46.3348 66.9194C46.3379 66.9141 46.3395 66.9084 46.3395 66.9023C46.3481 66.8908 46.3585 66.8815 46.3709 66.8743C46.3756 66.8711 46.3732 66.8619 46.3664 66.8641Z" fill="black"/>
</g>
<g opacity="0.38">
<path d="M44.01 67.4677C43.9853 67.443 43.9437 67.443 43.919 67.4677C43.8458 67.541 43.7695 67.6122 43.6993 67.6885C43.6648 67.726 43.6287 67.7627 43.5957 67.8017C43.5783 67.8221 43.5632 67.8449 43.5487 67.8676C43.5316 67.8945 43.5151 67.9147 43.5204 67.9481C43.5218 67.9375 43.5232 67.9269 43.5245 67.9163C43.5132 67.9341 43.5006 67.9516 43.4924 67.971C43.482 67.9953 43.5035 68.0193 43.5285 68.0071C43.5449 67.9991 43.5596 67.9879 43.5742 67.9773C43.5942 67.9734 43.6112 67.9586 43.6277 67.9467C43.6505 67.9306 43.6744 67.9137 43.6946 67.8943C43.7315 67.859 43.767 67.8221 43.8027 67.7856C43.8741 67.7123 43.9408 67.6344 44.0098 67.5587C44.0334 67.533 44.0355 67.493 44.01 67.4677Z" fill="black"/>
</g>
<g opacity="0.38">
<path d="M25.7902 67.5261C25.2606 67.478 24.7708 67.745 24.3995 68.1047C24.1982 68.2997 24.0368 68.5251 23.8932 68.765C23.7508 69.0029 23.6531 69.2583 23.5486 69.5145C23.5382 69.5402 23.5768 69.5518 23.5907 69.5323C23.7406 69.3197 23.8963 69.1122 24.0437 68.898C24.1874 68.6895 24.3469 68.4872 24.5235 68.3054C24.8597 67.9598 25.3059 67.703 25.7902 67.6481C25.8677 67.6391 25.8691 67.5333 25.7902 67.5261Z" fill="black"/>
</g>
<g opacity="0.38">
<path d="M23.0911 68.2637C22.9658 68.297 22.8388 68.3553 22.7414 68.4408C22.6394 68.5305 22.5521 68.637 22.4848 68.7549C22.4185 68.871 22.3751 69.0075 22.353 69.1393C22.3326 69.26 22.3304 69.4086 22.3867 69.5204C22.3963 69.5393 22.4255 69.5338 22.4308 69.5146C22.4465 69.4573 22.4491 69.3984 22.4609 69.34C22.473 69.2805 22.4856 69.2209 22.5003 69.1617C22.5295 69.0444 22.5785 68.9387 22.6364 68.8333C22.6937 68.729 22.7637 68.6313 22.8473 68.5465C22.8879 68.5055 22.9153 68.4693 22.9556 68.4328C23.0044 68.3888 23.0564 68.3461 23.1097 68.3076C23.1309 68.2925 23.1191 68.2562 23.0911 68.2637Z" fill="black"/>
</g>
<g opacity="0.38">
<path d="M21.4749 68.9902C21.4866 68.9276 21.4015 68.9039 21.3797 68.9639C21.3156 69.1397 21.2763 69.3313 21.2818 69.5196C21.2844 69.6106 21.2928 69.7042 21.3101 69.7938C21.3279 69.8864 21.3615 69.9661 21.3987 70.0518C21.4046 70.0655 21.4274 70.0586 21.4266 70.0443C21.4211 69.9592 21.4233 69.8741 21.4207 69.7889C21.4178 69.6987 21.4158 69.6097 21.4201 69.5196C21.4286 69.3419 21.4423 69.1656 21.4749 68.9902Z" fill="black"/>
</g>
<g opacity="0.38">
<path d="M81.9552 68.9956C81.8398 68.9542 81.7286 68.9216 81.6054 68.9167C81.4801 68.9118 81.35 68.9336 81.2292 68.9671C81.1115 68.9999 80.9919 69.0438 80.8846 69.1025C80.8332 69.1307 80.7859 69.1707 80.7394 69.2066C80.689 69.2453 80.6409 69.2864 80.6092 69.3427C80.5893 69.3784 80.6225 69.4261 80.6637 69.4134C80.7147 69.3979 80.7614 69.3712 80.8075 69.3451C80.8573 69.3169 80.9085 69.2972 80.9599 69.2731C81.065 69.2239 81.166 69.1766 81.2782 69.1446C81.3863 69.1138 81.4954 69.0954 81.606 69.0754C81.7196 69.0548 81.8359 69.0318 81.9512 69.0248C81.9685 69.024 81.9714 69.0014 81.9552 68.9956Z" fill="black"/>
</g>
<g opacity="0.38">
<path d="M80.7947 68.7726C80.6664 68.7628 80.5385 68.7869 80.4239 68.8455C80.3674 68.8742 80.317 68.9111 80.2709 68.9546C80.2244 68.9985 80.1701 69.0521 80.1517 69.1147C80.1503 69.1198 80.1515 69.1253 80.1515 69.1307C80.1444 69.1445 80.137 69.1584 80.1307 69.1727C80.1091 69.2212 80.1709 69.2584 80.2021 69.2145C80.2101 69.2033 80.2188 69.1925 80.2276 69.1818C80.2303 69.1808 80.2335 69.1812 80.236 69.1796C80.2825 69.1476 80.317 69.1005 80.3602 69.0641C80.401 69.0301 80.4471 69.0003 80.4932 68.9738C80.5854 68.9207 80.6884 68.8795 80.7945 68.8671C80.8541 68.8597 80.8563 68.7773 80.7947 68.7726Z" fill="black"/>
</g>
<g opacity="0.38">
<path d="M57.8548 73.1504C57.4438 73.121 57.0594 73.203 56.6825 73.3675C56.3297 73.5213 55.9615 73.7638 55.7518 74.096C55.7334 74.1251 55.771 74.1653 55.8006 74.1447C55.953 74.0378 56.0931 73.9158 56.251 73.8155C56.4146 73.7114 56.5813 73.6108 56.7567 73.5278C57.0998 73.3656 57.4876 73.264 57.8626 73.2094C57.8979 73.2041 57.8863 73.1527 57.8548 73.1504Z" fill="black"/>
</g>
<g opacity="0.38">
<path d="M54.0005 73.6671C53.8626 73.725 53.7274 73.7865 53.5923 73.8513C53.5282 73.8821 53.4613 73.9099 53.4005 73.947C53.3808 73.959 53.3706 73.9731 53.3538 73.9882C53.343 73.9982 53.3281 74.0055 53.3157 74.0139C53.2824 74.0364 53.2545 74.0584 53.2269 74.0876C53.2118 74.1037 53.2214 74.1367 53.2465 74.1347C53.2832 74.1314 53.3151 74.1259 53.3502 74.1147C53.3665 74.1096 53.3836 74.1018 53.4005 74.0988C53.4214 74.0949 53.4399 74.0957 53.4601 74.0884C53.5289 74.0639 53.5937 74.028 53.6592 73.9962C53.7924 73.9313 53.9236 73.8646 54.0535 73.7932C54.1203 73.7565 54.0737 73.6363 54.0005 73.6671Z" fill="black"/>
</g>
<g opacity="0.38">
<path d="M40.2087 73.8793C40.0094 73.9711 39.828 74.0971 39.6298 74.1922C39.4341 74.286 39.2403 74.3844 39.0426 74.4735C39.0243 74.4817 39.0331 74.5141 39.053 74.5121C39.2779 74.4886 39.4961 74.4333 39.6985 74.3297C39.898 74.2275 40.1059 74.1071 40.2491 73.9315C40.2734 73.9021 40.244 73.8631 40.2087 73.8793Z" fill="black"/>
</g>
<g opacity="0.38">
<path d="M38.1932 74.1425C38.1936 74.1406 38.1942 74.1388 38.1946 74.137C38.2007 74.1129 38.1703 74.1031 38.1569 74.121C38.1563 74.1217 38.1558 74.1225 38.1552 74.1231C38.1336 74.1215 38.114 74.1241 38.0959 74.1419C38.0847 74.1529 38.0747 74.1651 38.063 74.1759C38.0371 74.2004 38.021 74.2112 37.9965 74.2324C37.9612 74.263 37.8986 74.2993 37.8568 74.3146C37.828 74.3253 37.7984 74.3334 37.7682 74.3391C37.7493 74.3428 37.7311 74.3446 37.7138 74.354C37.7091 74.3559 37.7052 74.3589 37.7013 74.3622C37.6991 74.3628 37.683 74.3663 37.682 74.3665C37.6269 74.3773 37.5626 74.3616 37.5112 74.384C37.4986 74.3895 37.4961 74.4079 37.5022 74.4185C37.5314 74.4705 37.6155 74.4864 37.6695 74.495C37.6811 74.4968 37.6928 74.4985 37.7044 74.4997C37.7087 74.5003 37.7132 74.5007 37.7175 74.5011C37.7193 74.5013 37.7183 74.5011 37.7191 74.5011C37.7289 74.5044 37.7413 74.5091 37.7452 74.5095C37.7599 74.5111 37.7729 74.5097 37.7876 74.5074C37.8207 74.5023 37.8533 74.4938 37.8849 74.4825C37.9521 74.4587 38.0141 74.4258 38.0704 74.3824C38.1281 74.3379 38.1699 74.2836 38.2015 74.2179C38.2146 74.191 38.2109 74.1655 38.1932 74.1425Z" fill="black"/>
</g>
<path d="M77.8004 39.2317C77.8004 39.2317 78.274 37.8343 76.8622 37.2384C76.7985 35.5874 75.4437 34.2673 73.7771 34.2673C73.6751 34.2673 73.5747 34.2728 73.4754 34.2826C73.2416 32.8071 71.9674 31.6777 70.4262 31.6777C69.2646 31.6777 68.254 32.3191 67.7258 33.2665C67.1671 32.7116 66.3978 32.3683 65.5479 32.3683C64.5616 32.3683 63.6854 32.8318 63.1193 33.5511C62.9114 33.4789 62.6893 33.4376 62.4567 33.4376C61.3402 33.4376 60.4351 34.3428 60.4351 35.4593C60.4351 35.4931 60.4385 35.526 60.4402 35.5594C67.6328 35.8277 73.1155 37.7879 76.2318 39.2317C76.2318 39.2317 78.8367 40.4781 80.1598 42.0607C80.1598 42.0607 78.6637 39.7402 77.8004 39.2317Z" fill="white"/>
<path d="M27.8282 27.7612C27.8282 27.7612 27.504 26.8034 26.4873 27.0672C25.7651 26.1951 24.4779 26.0408 23.5707 26.735C23.5152 26.7775 23.4628 26.8224 23.4128 26.8691C22.6711 26.1634 21.5072 26.0794 20.6684 26.7214C20.0362 27.2051 19.7532 27.9752 19.8603 28.7108C19.325 28.6414 18.7634 28.775 18.301 29.129C17.7642 29.5398 17.4803 30.1569 17.4719 30.7842C17.3287 30.8316 17.1906 30.9017 17.0641 30.9984C16.4564 31.4633 16.3407 32.333 16.8058 32.9407C16.8199 32.9591 16.8354 32.9756 16.8503 32.9931C20.8767 30.1435 24.6772 28.9268 26.9746 28.4148C26.9746 28.4148 28.9114 28.0082 30.2909 28.3187C30.2907 28.3183 28.5097 27.6785 27.8282 27.7612Z" fill="white"/>
<path d="M56.626 26.45C56.6038 25.4941 56.2333 22.9983 52.9483 23.1982C52.9483 23.1982 52.7451 21.9849 51.0199 22.7293C51.0199 22.7293 49.5154 19.5085 46.343 20.3243C43.1706 21.1401 42.5829 24.5816 42.5829 24.5816C42.5829 24.5816 39.4233 24.2229 39.2695 27.7311H39.2697C36.8223 28.93 35.3344 30.0914 35.3344 30.0914C48.9332 25.0124 60.092 28.2695 60.092 28.2695C58.9367 27.51 57.7776 26.9119 56.626 26.45Z" fill="white"/>
<g opacity="0.38">
<path d="M78.9383 76.3545C78.7545 76.8476 78.5419 77.3131 78.252 77.755C78.1111 77.97 77.9473 78.1619 77.7867 78.3617C77.6286 78.5583 77.4211 78.7144 77.2726 78.9182C77.242 78.9602 77.2926 79.0185 77.3387 79.0043C77.5966 78.9249 77.8016 78.7213 77.9989 78.5473C78.2002 78.3698 78.3685 78.133 78.5081 77.9045C78.7855 77.4496 78.9632 76.8931 78.9518 76.3561C78.9516 76.3482 78.9409 76.3474 78.9383 76.3545Z" fill="black"/>
</g>
<g opacity="0.38">
<path d="M76.9973 77.6997C76.9836 77.6825 76.9706 77.6648 76.9585 77.6464C76.9583 77.6323 76.9373 77.6248 76.9306 77.6389C76.9214 77.658 76.8728 77.6639 76.8557 77.6815C76.8392 77.6984 76.8337 77.719 76.8257 77.7404C76.8118 77.777 76.7978 77.8131 76.7816 77.8486C76.7496 77.9189 76.7143 77.9887 76.6768 78.0562C76.6011 78.1923 76.5089 78.3212 76.404 78.4363C76.1919 78.6693 75.9301 78.8565 75.6594 79.015C75.6364 79.0285 75.6446 79.0709 75.6739 79.0685C76.0234 79.0371 76.3324 78.8543 76.5681 78.6005C76.686 78.4736 76.7867 78.3329 76.8651 78.1782C76.9061 78.0972 76.941 78.014 76.9669 77.9267C76.9785 77.8877 76.9887 77.8486 76.9977 77.809C77.0022 77.7892 77.0103 77.7657 77.0095 77.7451C77.0095 77.7288 77.0054 77.7137 76.9973 77.6997Z" fill="black"/>
</g>
<g opacity="0.38">
<path d="M74.8387 78.5341C74.834 78.5027 74.8329 78.4576 74.8158 78.4306C74.8019 78.4088 74.7928 78.3931 74.7803 78.3662C74.7762 78.3574 74.7626 78.3603 74.7603 78.3688C74.7568 78.3831 74.7546 78.4005 74.7483 78.4139C74.7501 78.41 74.7367 78.43 74.7334 78.4362C74.7199 78.4604 74.7169 78.4996 74.7083 78.5263C74.6877 78.5912 74.6693 78.6561 74.6457 78.7201C74.6014 78.8401 74.5402 78.9527 74.4613 79.0537C74.3819 79.1555 74.2846 79.2524 74.1769 79.3236C74.1222 79.3597 74.0628 79.3866 74.0065 79.4196C73.979 79.4357 73.9506 79.4506 73.9215 79.4639C73.8892 79.4786 73.8495 79.4863 73.8213 79.508C73.7913 79.5308 73.796 79.5712 73.8313 79.5853C73.895 79.6104 73.9902 79.5892 74.0561 79.5788C74.1338 79.5663 74.2073 79.531 74.2762 79.4937C74.4172 79.417 74.5359 79.3136 74.6326 79.1861C74.724 79.0657 74.7964 78.9192 74.827 78.7703C74.8427 78.6936 74.8501 78.6116 74.8387 78.5341Z" fill="black"/>
</g>
<g opacity="0.38">
<path d="M58.7441 85.804C58.2898 85.7306 57.7675 85.8617 57.3504 86.0392C56.9256 86.22 56.4699 86.4919 56.2349 86.905C56.2163 86.9374 56.2541 86.9776 56.2871 86.9572C56.671 86.7195 57.0158 86.4325 57.4309 86.2438C57.638 86.1498 57.8526 86.0723 58.0727 86.0145C58.2945 85.9564 58.5205 85.9341 58.7443 85.888C58.7849 85.8799 58.7867 85.8109 58.7441 85.804Z" fill="black"/>
</g>
<g opacity="0.38">
<path d="M56.2609 85.8851C56.2296 85.8913 56.198 85.8872 56.1682 85.8956C56.1358 85.9045 56.1038 85.9188 56.0724 85.931C56.0044 85.9574 55.9373 85.9859 55.8716 86.0175C55.7384 86.082 55.6183 86.1695 55.5022 86.2605C55.392 86.3468 55.2835 86.4457 55.195 86.5541C55.1491 86.6102 55.1168 86.6769 55.0785 86.7385C55.0418 86.7976 54.9991 86.859 54.9752 86.9245C54.9671 86.947 54.9973 86.9714 55.0173 86.9568C55.0689 86.919 55.1129 86.8701 55.1611 86.8276C55.2145 86.7805 55.2737 86.7462 55.3274 86.7007C55.4332 86.611 55.5336 86.5161 55.6419 86.429C55.7455 86.3458 55.8549 86.2707 55.9618 86.1916C56.0177 86.1503 56.0742 86.1098 56.1317 86.071C56.1605 86.0516 56.1901 86.0339 56.2186 86.0145C56.247 85.9953 56.2611 85.9702 56.2884 85.9494C56.3196 85.9259 56.3023 85.8772 56.2609 85.8851Z" fill="black"/>
</g>
<g opacity="0.38">
<path d="M54.4607 86.0781C54.4167 86.0783 54.3736 86.0824 54.3304 86.0908C54.2832 86.0998 54.2392 86.1255 54.1982 86.1495C54.1192 86.1958 54.0454 86.2536 53.9807 86.3184C53.9175 86.3817 53.865 86.46 53.8232 86.539C53.7887 86.604 53.7261 86.7181 53.7524 86.7985C53.7424 86.8772 53.7388 86.9553 53.7504 87.0349C53.7575 87.0845 53.8381 87.0816 53.8477 87.0349C53.8614 86.968 53.8787 86.9013 53.9048 86.838C53.9258 86.8176 53.9393 86.7893 53.9523 86.7621C53.9699 86.7256 53.9864 86.6887 54.006 86.6532C54.0448 86.5834 54.085 86.532 54.1347 86.4725C54.181 86.4172 54.2335 86.365 54.292 86.3227C54.3277 86.2968 54.3679 86.277 54.4018 86.2487C54.4301 86.225 54.4585 86.2013 54.4883 86.1795C54.5295 86.1495 54.5191 86.0777 54.4607 86.0781Z" fill="black"/>
</g>
<g opacity="0.38">
<path d="M42.0059 87.1329C41.5578 86.5098 41.0449 85.917 40.4286 85.4556C39.8668 85.0351 39.124 84.7206 38.4135 84.8846C38.3747 84.8936 38.3743 84.9548 38.4135 84.9635C38.5765 84.9996 38.7387 85.0302 38.8996 85.0749C39.0647 85.1208 39.2167 85.1934 39.377 85.2538C39.7036 85.377 40.0061 85.5488 40.2946 85.7442C40.9007 86.1549 41.386 86.7043 41.9137 87.2041C41.96 87.2475 42.0463 87.189 42.0059 87.1329Z" fill="black"/>
</g>
<g opacity="0.38">
<path d="M39.0336 86.6056C38.9124 86.429 38.7821 86.2902 38.6079 86.1646C38.423 86.0312 38.229 85.9239 38.0191 85.8353C37.821 85.7517 37.6076 85.6689 37.3943 85.635C37.2884 85.6181 37.1776 85.6105 37.0703 85.6089C36.9787 85.6075 36.8569 85.6019 36.7755 85.6478C36.7457 85.6646 36.751 85.7029 36.7755 85.7209C36.8465 85.7723 36.9595 85.7862 37.0436 85.8076C37.138 85.8316 37.2309 85.8592 37.3243 85.8863C37.5248 85.9445 37.7243 85.991 37.9189 86.0689C38.2976 86.2203 38.6505 86.4373 39.0073 86.6321C39.0232 86.6403 39.0448 86.6221 39.0336 86.6056Z" fill="black"/>
</g>
<g opacity="0.38">
<path d="M36.3578 86.3803C36.3009 86.3645 36.2537 86.3378 36.196 86.3256C36.1307 86.3117 36.0656 86.298 35.9996 86.2893C35.8708 86.2721 35.7423 86.2534 35.6134 86.2389C35.4845 86.2244 35.3563 86.2156 35.2272 86.206C35.1079 86.1973 34.9624 86.164 34.8508 86.2187C34.8157 86.2358 34.8057 86.2962 34.8376 86.3215C34.9351 86.3988 35.0799 86.3982 35.1989 86.4153C35.3276 86.4339 35.4553 86.4533 35.5848 86.4676C35.7133 86.4816 35.8423 86.491 35.971 86.502C36.0377 86.5077 36.1042 86.5084 36.1713 86.509C36.2309 86.5094 36.2837 86.4933 36.3431 86.4904C36.4043 86.4869 36.4206 86.3976 36.3578 86.3803Z" fill="black"/>
</g>
<g opacity="0.38">
<path d="M32.9557 74.9688C32.8951 74.9217 32.839 74.8668 32.7749 74.8252C32.6389 74.737 32.4981 74.6567 32.3516 74.5875C32.2097 74.5206 32.0628 74.4665 31.9147 74.4147C31.8404 74.3888 31.766 74.3707 31.6909 74.3486C31.6064 74.3237 31.5303 74.3221 31.444 74.3078C31.4294 74.3054 31.42 74.324 31.4336 74.3327C31.5014 74.3762 31.5554 74.426 31.6262 74.4645C31.6948 74.5018 31.7598 74.5439 31.8286 74.5814C31.9659 74.6565 32.1003 74.7364 32.2378 74.8111C32.3759 74.886 32.5159 74.9578 32.6564 75.0278C32.727 75.063 32.8031 75.0873 32.8753 75.12C32.9345 75.1467 32.9873 75.1754 33.0534 75.1612C33.074 75.1567 33.0846 75.1334 33.0801 75.1143C33.0642 75.0465 33.0081 75.0096 32.9557 74.9688Z" fill="black"/>
</g>
<g opacity="0.38">
<path d="M34.0685 74.9265C33.9983 74.8908 33.9355 74.8435 33.8675 74.8037C33.842 74.7719 33.8025 74.7574 33.7651 74.7396C33.7303 74.7231 33.6964 74.7045 33.6621 74.6868C33.5881 74.6486 33.5161 74.6095 33.4461 74.564C33.3773 74.5193 33.3153 74.4628 33.2462 74.42C33.1917 74.3861 33.1419 74.3165 33.0781 74.3014C33.056 74.2812 33.0346 74.2608 33.0134 74.2398C32.9901 74.2166 32.953 74.2462 32.9685 74.2745C32.9836 74.3025 32.9993 74.3298 33.0156 74.3569C33.0224 74.4259 33.0889 74.484 33.1262 74.5397C33.177 74.6152 33.2594 74.6797 33.3308 74.7351C33.4016 74.79 33.4761 74.8441 33.5554 74.8857C33.5981 74.9081 33.6431 74.9267 33.6876 74.9453C33.7276 74.962 33.7609 74.9716 33.7972 74.9681C33.8841 74.9842 33.9659 74.9795 34.0548 74.9773C34.0803 74.9767 34.0936 74.9393 34.0685 74.9265Z" fill="black"/>
</g>
<g opacity="0.38">
<path d="M35.7262 74.987C35.6873 74.9542 35.6353 74.9352 35.5902 74.9116C35.5414 74.8858 35.4941 74.8579 35.4478 74.8279C35.3521 74.7659 35.2495 74.7139 35.153 74.6531C35.0612 74.5951 34.9747 74.5278 34.8902 74.4597C34.847 74.4248 34.8082 74.3828 34.7642 74.3493C34.7432 74.3334 34.7228 74.313 34.7011 74.2983C34.6785 74.2828 34.6579 74.2743 34.6361 74.2551C34.6248 74.2451 34.603 74.2545 34.6087 74.271C34.6181 74.2981 34.6208 74.3267 34.6297 74.3532C34.6385 74.3797 34.654 74.4097 34.6669 74.4346C34.6928 74.4854 34.7334 74.5329 34.7683 74.5778C34.8454 74.6774 34.9374 74.7579 35.0375 74.8338C35.1312 74.9048 35.2419 74.9713 35.3558 75.004C35.4143 75.0207 35.4751 75.0321 35.5353 75.0417C35.5904 75.0503 35.6544 75.0635 35.7093 75.0509C35.7358 75.0448 35.7481 75.0054 35.7262 74.987Z" fill="black"/>
</g>
<g opacity="0.38">
<path d="M76.2074 69.4408C76.0109 69.4743 75.8077 69.4992 75.6178 69.5618C75.4295 69.624 75.2455 69.6936 75.0682 69.7831C74.7224 69.958 74.3616 70.1712 74.1741 70.5241C74.1551 70.5598 74.1922 70.5916 74.2263 70.5763C74.5713 70.4215 74.8561 70.1665 75.1814 69.9769C75.5087 69.7864 75.8573 69.5989 76.2194 69.4855C76.2486 69.4765 76.2363 69.4359 76.2074 69.4408Z" fill="black"/>
</g>
<g opacity="0.38">
<path d="M73.6521 69.6859C73.5701 69.7126 73.4858 69.7402 73.4089 69.7787C73.3285 69.8191 73.2504 69.8642 73.1751 69.9132C73.1002 69.9617 73.0299 70.0164 72.9621 70.0743C72.9289 70.1027 72.8964 70.1321 72.8648 70.1621C72.834 70.1914 72.7983 70.221 72.7818 70.2606C72.7175 70.3424 72.6488 70.4305 72.6166 70.5295C72.6066 70.5607 72.6465 70.5943 72.6747 70.5741C72.7602 70.5127 72.8318 70.4289 72.9103 70.3587C72.9375 70.3408 72.9607 70.3179 72.9848 70.2936C73.0156 70.2628 73.0472 70.2326 73.0796 70.2035C73.1402 70.149 73.2037 70.097 73.2679 70.0468C73.3989 69.9444 73.5425 69.8512 73.6876 69.7702C73.7328 69.7455 73.7027 69.6694 73.6521 69.6859Z" fill="black"/>
</g>
<g opacity="0.38">
<path d="M71.3237 69.871C71.2438 69.9901 71.1652 70.1095 71.0899 70.2319C71.0532 70.2914 71.0202 70.3537 70.9859 70.4147C70.9498 70.4789 70.8996 70.5468 70.8798 70.6182C70.8743 70.6378 70.8764 70.6597 70.8827 70.6803C70.8819 70.7007 70.8815 70.7202 70.8762 70.7411C70.87 70.7651 70.8664 70.7835 70.8696 70.8082C70.8725 70.8294 70.8984 70.8331 70.9137 70.8261C70.9357 70.8161 70.9482 70.8006 70.9647 70.7831C70.9771 70.77 70.9918 70.7608 71.0063 70.7511C71.0267 70.7466 71.0459 70.7376 71.0593 70.7229C71.1079 70.6695 71.1377 70.5968 71.172 70.5338C71.2068 70.4697 71.2434 70.4061 71.2756 70.3406C71.3392 70.2115 71.3988 70.0809 71.4574 69.9495C71.4982 69.8592 71.3804 69.7863 71.3237 69.871Z" fill="black"/>
</g>
<g opacity="0.25">
<path d="M59.1048 77.4579C69.1507 77.4579 77.2945 74.577 77.2945 71.0232C77.2945 67.4693 69.1507 64.5884 59.1048 64.5884C49.059 64.5884 40.9152 67.4693 40.9152 71.0232C40.9152 74.577 49.059 77.4579 59.1048 77.4579Z" fill="black"/>
</g>
</g>
<path d="M65.2393 66.3145L65.4831 66.4132C63.7819 68.9216 61.3765 70.9173 58.5548 72.1136C58.8465 71.7129 59.0528 71.3443 59.1354 71.1888C61.9965 70.1088 64.676 66.9968 65.2393 66.3145Z" fill="white"/>
<path d="M38.918 62.8263L38.4447 64.8918C37.4402 62.9787 36.816 60.8361 36.6766 58.5645C36.6562 58.2394 36.6462 57.9128 36.6462 57.5833C36.6462 57.2363 36.6593 56.8924 36.6811 56.5513L36.9178 56.6108C36.9555 56.8256 37.0077 57.0623 37.0716 57.3148C37.5695 59.3324 38.7307 62.3428 38.918 62.8263Z" fill="white"/>
<path d="M58.6607 71.131C58.4879 71.4344 58.1366 71.9976 57.6999 72.4462C56.0481 73.0342 54.2698 73.3563 52.4191 73.3563C52.2015 73.3563 51.985 73.352 51.7688 73.3432C49.6829 73.2575 47.7029 72.7641 45.9001 71.944C46.6186 71.8046 47.2022 70.8944 47.6435 70.4168C48.2836 69.723 49.2575 69.8624 50.1213 69.8391C50.9138 69.8187 51.7049 69.7781 52.496 69.7491C52.5366 69.7477 52.5366 69.6867 52.496 69.6853C51.7514 69.6708 51.0066 69.6418 50.2606 69.6345C49.6553 69.6271 48.9309 69.5213 48.3387 69.6635C47.8685 69.7767 47.5113 70.1251 47.1745 70.4546C46.7492 70.8697 46.2659 71.6535 45.6388 71.8206C45.4311 71.7218 45.2265 71.6188 45.0233 71.5113C46.4705 70.7406 47.5548 69.2614 47.864 68.8071C48.1529 68.884 48.4446 68.9464 48.738 68.9972C49.4624 69.122 50.1894 69.1714 50.8848 69.1714C52.8053 69.1714 54.4687 68.8014 55.1205 68.6343C55.5326 68.9927 57.4255 70.6041 58.6607 71.131ZM58.0554 71.4531C58.102 71.4648 58.1236 71.4052 58.0875 71.3791C57.5518 71.0046 56.9669 70.7185 56.4457 70.3224C55.91 69.916 55.3947 69.466 54.8881 69.0247C54.8431 68.9841 54.7764 69.048 54.8214 69.0914C55.7604 70.0103 56.7201 71.131 58.0554 71.4531Z" fill="white"/>
<path d="M68.1915 57.5836C68.1915 57.961 68.1785 58.3355 68.1524 58.7056C67.968 61.2994 67.1522 63.7236 65.8604 65.8225C65.859 65.6324 65.827 65.4394 65.7864 65.2462C65.7807 65.2187 65.7327 65.2244 65.7356 65.2536C65.7676 65.512 65.7444 65.7717 65.7182 66.0302L65.3888 65.8982C65.3553 64.0285 64.7052 62.1197 64.5295 61.6407C64.5818 61.5726 64.6311 61.5042 64.6805 61.4347C66.1974 59.2588 66.4021 55.8694 66.4282 54.9448L67.99 55.0682C68.122 55.8881 68.1915 56.727 68.1915 57.5836ZM65.8706 64.6758C65.9983 63.6409 65.6703 62.6785 65.2393 61.7494C65.2205 61.7074 65.1507 61.7364 65.1638 61.7798C65.4773 62.7276 65.5789 63.7176 65.8039 64.6844C65.8125 64.7252 65.8647 64.7107 65.8706 64.6758Z" fill="white"/>
<path d="M65.997 54.7354C65.9927 55.081 65.9084 58.9115 64.3234 61.1875C64.2726 61.2601 64.2189 61.3327 64.1651 61.4023L58.575 62.1585L54.187 56.56C54.5063 55.8574 56.0391 52.3882 56.4224 49.9495L62.5218 49.4995C65.3001 52.3955 65.9331 54.503 65.997 54.7354ZM65.663 54.6672C65.6775 54.6934 65.7167 54.676 65.7095 54.6468C65.2479 52.7017 63.6063 51.3896 62.1895 50.1223C62.1489 50.0846 62.0894 50.1442 62.1285 50.1833C63.4945 51.542 64.6906 53.0022 65.663 54.6672ZM60.6422 61.5867C60.6595 61.5839 60.6538 61.5592 60.6393 61.5577C60.243 61.5243 59.7321 61.5912 59.3562 61.4766C59.044 61.3807 58.8003 61.1108 58.6014 60.8699C58.2109 60.3966 57.8307 59.9133 57.4459 59.4357C56.6446 58.4429 55.8231 57.4718 55.0059 56.4935C54.984 56.4673 54.9361 56.5022 54.9579 56.5298C55.9204 57.8217 56.8696 59.1193 57.8582 60.3923C58.176 60.8001 58.523 61.4345 59.0324 61.6289C59.52 61.8146 60.1414 61.6593 60.6422 61.5867Z" fill="white"/>
<path d="M62.3418 45.3336L62.3884 49.0729L56.3906 49.5156L56.2918 49.523L50.6598 45.8185L50.8862 42.7557C51.2506 42.6135 52.4989 42.1257 53.1898 41.834C53.2769 41.8383 53.3626 41.8428 53.4483 41.8485C52.8981 42.0531 52.3944 42.3768 51.9764 42.8109C51.9503 42.8385 51.9909 42.8791 52.0184 42.853C52.586 42.3158 53.2698 42.0678 53.9852 41.8905C56.6068 42.1504 59.0409 43.0547 61.1268 44.4423C61.6044 45.3467 61.6464 46.3716 61.603 47.392C61.6015 47.4326 61.6595 47.4297 61.6654 47.392C61.7815 46.4746 61.9092 45.4527 61.4563 44.6645C61.7598 44.8779 62.0544 45.0998 62.3418 45.3336ZM59.2443 48.8216C59.2965 48.8128 59.2806 48.7359 59.2327 48.7345C57.697 48.6562 56.3398 48.63 54.9797 47.8098C53.8038 47.1 52.6616 46.303 51.5278 45.5278C51.4886 45.5017 51.4538 45.5627 51.4901 45.5902C52.7514 46.525 53.9519 47.6557 55.3483 48.3875C56.5501 49.0191 57.9306 49.0119 59.2443 48.8216Z" fill="white"/>
<path d="M50.4521 42.7322L50.2242 45.8124C49.8948 46.0476 48.6392 46.9505 47.3821 47.8605C45.3848 49.3077 44.7142 49.8012 44.4847 50.0117C44.4498 50.0146 44.3976 50.0174 44.3323 50.0205C43.6748 50.0509 41.602 50.0829 40.1664 50.1002L39.8311 48.0898C39.9647 47.9142 40.1026 47.74 40.2433 47.5688C40.1707 48.2016 40.2998 48.8563 40.5104 49.4689C40.5249 49.5095 40.5859 49.4936 40.5771 49.4499C40.4088 48.7008 40.4624 47.9693 40.5336 47.2261C42.2291 45.2824 44.3905 43.7583 46.8436 42.8279C47.0975 42.732 47.3546 42.642 47.6143 42.5594C48.2022 42.6916 48.8583 42.7742 49.2995 43.2228C49.8236 43.7554 49.4882 44.9994 49.3997 45.6657C49.3954 45.7006 49.4533 45.7077 49.4607 45.6745C49.6233 44.9052 50.14 43.7106 49.468 43.0545C49.1936 42.7875 48.6871 42.5015 48.1979 42.3868C48.2575 42.3695 48.3185 42.3548 48.3793 42.3389L50.4521 42.7322Z" fill="white"/>
<path d="M53.8444 56.8284L58.2325 62.4286C57.9654 63.1195 56.5066 66.7862 55.2292 68.1551C54.7851 68.2771 51.7339 69.0623 48.8132 68.5688C48.5011 68.5166 48.1904 68.4482 47.8842 68.3642C47.5068 67.9694 44.6196 64.9211 43.7675 63.0543C43.9358 62.4882 45.0651 58.8723 46.7665 57.0681C47.4966 57.0607 52.0356 57.0042 53.8371 56.8198L53.8444 56.8284ZM57.3673 63.8295C57.6286 63.3199 58.0191 62.7234 57.7578 62.1457C57.4879 61.5461 56.7984 61.0018 56.36 60.5285C55.6764 59.7882 54.9577 59.0785 54.2798 58.3351C54.2494 58.3017 54.2029 58.3496 54.2304 58.3831C55.1651 59.4588 56.0448 60.5793 56.9913 61.6463C57.3702 62.0745 57.6503 62.5114 57.4108 63.0847C57.2729 63.4113 57.1001 63.7262 56.9346 64.0384C56.6023 64.6655 56.2553 65.2852 55.9012 65.8993C55.8867 65.9254 55.9216 65.9543 55.9418 65.9313C56.5007 65.2868 56.9783 64.5886 57.3673 63.8295ZM46.4458 65.7309C46.4821 65.7644 46.5474 65.7207 46.517 65.6759C45.855 64.715 44.447 63.6132 44.6691 62.3547C44.855 61.2907 45.5168 60.1832 45.9174 59.1772C45.9276 59.1511 45.884 59.1338 45.8709 59.1585C45.3019 60.2007 44.3091 61.5375 44.3323 62.786C44.3542 63.9688 45.6663 64.9994 46.4458 65.7309Z" fill="white"/>
<path d="M44.3991 50.4473C44.5602 51.3516 45.2685 55.0575 46.395 56.8284C44.7024 58.6719 43.6065 62.0742 43.3713 62.8537C42.7138 62.8594 40.1953 62.8625 39.3099 62.6301C39.0892 62.0567 37.9714 59.1362 37.4925 57.2101C37.4243 56.9343 37.369 56.6803 37.3313 56.4553C37.5302 55.9212 39.1704 51.5576 40.0792 50.5358C42.7153 50.5068 43.8518 50.4923 44.3526 50.4515C44.3687 50.4501 44.3846 50.4487 44.3991 50.4473ZM44.7257 58.544C45.5023 57.5367 45.7867 56.5903 45.3499 55.3767C44.8462 53.9818 44.3483 52.5825 43.9782 51.1454C43.9695 51.1133 43.9217 51.1266 43.9289 51.1598C44.1771 52.414 44.4646 53.6421 44.8738 54.8541C45.0872 55.484 45.3485 56.0907 45.2628 56.7686C45.1845 57.3812 44.9028 57.9545 44.6794 58.5251C44.6692 58.5528 44.7098 58.5644 44.7257 58.544ZM40.1432 62.2295C40.1955 62.2352 40.2085 62.1597 40.1693 62.1367C39.313 61.6199 39.1387 60.328 38.8513 59.4484C38.5392 58.4975 38.2214 57.5585 37.8295 56.6366C37.8164 56.6046 37.767 56.6279 37.7744 56.6613C38.0865 58.0432 38.5365 59.3888 38.9835 60.7329C39.1836 61.3382 39.4015 62.1571 40.1432 62.2295Z" fill="white"/>
<g opacity="0.25">
<path d="M56.7706 42.2939C60.0913 45.2038 62.1884 49.4756 62.1884 54.2377C62.1884 63.0057 55.0806 70.1134 46.3127 70.1134C44.8345 70.1134 43.4039 69.9106 42.0463 69.5328C44.8394 71.9806 48.4982 73.4647 52.5039 73.4647C61.2718 73.4647 68.3796 66.357 68.3796 57.5891C68.3798 50.2991 63.4663 44.1577 56.7706 42.2939Z" fill="black"/>
</g>
<path d="M62.7743 45.1245L62.7352 45.0911C59.9308 42.7714 56.3353 41.375 52.4189 41.375C50.4026 41.375 48.4707 41.7451 46.6896 42.4229C40.5712 44.741 36.2107 50.6621 36.2107 57.583C36.2107 57.9212 36.2209 58.258 36.2441 58.5918C36.7507 66.8409 43.4584 73.4414 51.7526 73.7751C51.9734 73.7867 52.1953 73.791 52.4189 73.791C54.3481 73.791 56.1988 73.4514 57.9161 72.8302C57.9161 72.8302 57.9479 72.8259 57.9567 72.8157C63.8313 70.6747 68.1277 65.2269 68.5851 58.7356C68.614 58.3554 68.6271 57.9706 68.6271 57.583C68.6271 52.5813 66.3482 48.1003 62.7743 45.1245ZM53.1898 41.8338C53.2769 41.8381 53.3626 41.8426 53.4481 41.8483C52.8979 42.0529 52.3942 42.3766 51.9762 42.8108C51.9501 42.8383 51.9907 42.8789 52.0182 42.8528C52.5858 42.3156 53.2694 42.0676 53.985 41.8903C56.6066 42.1502 59.0407 43.0545 61.1266 44.4421C61.6042 45.3465 61.6462 46.3712 61.6028 47.3918C61.6013 47.4324 61.6595 47.4295 61.6652 47.3918C61.7813 46.4744 61.909 45.4526 61.4561 44.6643C61.7594 44.8777 62.0542 45.0998 62.3417 45.3334L62.3882 49.0727L56.3904 49.5154L56.2916 49.5228L50.6596 45.8183L50.886 42.7555C51.2506 42.6133 52.4989 42.1257 53.1898 41.8338ZM40.2434 47.5691C40.1707 48.2019 40.2999 48.8565 40.5104 49.4691C40.5249 49.5097 40.5859 49.4938 40.5771 49.4503C40.4086 48.7013 40.4625 47.9697 40.5337 47.2265C42.2291 45.2828 44.3905 43.7587 46.8436 42.8283C47.0976 42.7324 47.3546 42.6425 47.6143 42.5598C48.2022 42.6918 48.8583 42.7746 49.2995 43.2232C49.8236 43.7559 49.4882 44.9999 49.3997 45.6661C49.3952 45.701 49.4534 45.7082 49.4607 45.6749C49.6233 44.9056 50.14 43.711 49.4678 43.0549C49.1935 42.7879 48.6869 42.5019 48.1977 42.3872C48.2573 42.3699 48.3183 42.3552 48.3791 42.3393L50.4519 42.7326L50.2241 45.8128C49.8946 46.048 48.639 46.9509 47.3819 47.861C45.3846 49.3082 44.714 49.8016 44.4845 50.0122C44.4496 50.015 44.3974 50.0179 44.3321 50.0209C43.6744 50.0513 41.6018 50.0834 40.166 50.1007L39.8309 48.0903C39.9647 47.9144 40.1024 47.7402 40.2434 47.5691ZM38.4447 64.8919C37.4402 62.9788 36.816 60.8362 36.6766 58.5644C36.6564 58.2393 36.6462 57.9127 36.6462 57.5832C36.6462 57.2362 36.6593 56.8923 36.6811 56.5512L36.9178 56.6107C36.9555 56.8256 37.0077 57.0622 37.0716 57.3147C37.5695 59.3325 38.7307 62.3429 38.918 62.8264L38.4447 64.8919ZM39.3099 62.6304C39.0891 62.0569 37.9714 59.1365 37.4924 57.2103C37.4243 56.9345 37.369 56.6805 37.3313 56.4555C37.5302 55.9214 39.1703 51.5579 40.0791 50.536C42.7152 50.5071 43.8517 50.4926 44.3525 50.4518C44.3684 50.4503 44.3844 50.4489 44.399 50.4475C44.5602 51.3518 45.2685 55.0577 46.395 56.8286C44.7024 58.6722 43.6065 62.0745 43.3713 62.854C42.7138 62.8597 40.1954 62.8627 39.3099 62.6304ZM46.7667 57.0681C47.4968 57.0608 52.0358 57.0043 53.8373 56.8198L53.8444 56.8286L58.2325 62.4288C57.9655 63.1198 56.5066 66.7865 55.2292 68.1553C54.7851 68.2773 51.7339 69.0625 48.8134 68.569C48.5013 68.5168 48.1906 68.4485 47.8844 68.3644C47.507 67.9697 44.6198 64.9213 43.7679 63.0547C43.936 62.4882 45.0653 58.8723 46.7667 57.0681ZM57.6999 72.4458C56.0481 73.0338 54.2698 73.3559 52.4191 73.3559C52.2014 73.3559 51.985 73.3516 51.7688 73.3428C49.6829 73.2571 47.7028 72.7637 45.9001 71.9436C46.6186 71.8043 47.2022 70.894 47.6435 70.4164C48.2836 69.7226 49.2575 69.862 50.1212 69.8387C50.9138 69.8183 51.7049 69.7777 52.496 69.7488C52.5366 69.7473 52.5366 69.6863 52.496 69.6849C51.7512 69.6704 51.0066 69.6412 50.2606 69.6341C49.6553 69.6268 48.9309 69.5209 48.3387 69.6631C47.8683 69.7763 47.5113 70.1247 47.1745 70.4542C46.7491 70.8693 46.2659 71.6531 45.6388 71.8202C45.4311 71.7214 45.2265 71.6184 45.0233 71.5109C46.4705 70.7402 47.5549 69.261 47.864 68.8067C48.1529 68.8836 48.4446 68.946 48.7379 68.9968C49.4621 69.1217 50.1896 69.171 50.8848 69.171C52.8053 69.171 54.4687 68.801 55.1205 68.6339C55.5328 68.9925 57.4257 70.6037 58.6609 71.1306C58.4879 71.4342 58.1366 71.9974 57.6999 72.4458ZM58.5548 72.1135C58.8465 71.7129 59.0528 71.3442 59.1354 71.1888C61.9965 70.1088 64.676 66.9966 65.2393 66.3144L65.4833 66.4131C63.7819 68.9215 61.3765 70.9175 58.5548 72.1135ZM67.9898 55.0677C68.122 55.8878 68.1916 56.7268 68.1916 57.5832C68.1916 57.9606 68.1785 58.3352 68.1524 58.7052C67.968 61.2991 67.1522 63.7232 65.8605 65.8222C65.859 65.632 65.827 65.439 65.7864 65.2459C65.7805 65.2183 65.7328 65.224 65.7356 65.2532C65.7674 65.5117 65.7442 65.7714 65.7183 66.0298L65.3888 65.8976C65.3554 64.028 64.7052 62.1192 64.5296 61.6402C64.5818 61.572 64.6312 61.5037 64.6805 61.4341C66.1975 59.2583 66.4021 55.8688 66.4282 54.9443L67.9898 55.0677ZM64.3233 61.1875C64.2725 61.2601 64.2189 61.3327 64.1652 61.4023L58.5752 62.1585L54.1872 56.5597C54.5064 55.8572 56.0393 52.3879 56.4226 49.9493L62.522 49.4993C65.3003 52.3951 65.9331 54.5028 65.9969 54.7352C65.9924 55.0807 65.9084 58.9115 64.3233 61.1875Z" fill="black"/>
<path d="M65.8707 64.6758C65.9984 63.641 65.6704 62.6785 65.2393 61.7495C65.2206 61.7074 65.1508 61.7364 65.1638 61.7799C65.4774 62.7277 65.579 63.7177 65.804 64.6844C65.8126 64.7252 65.8648 64.7107 65.8707 64.6758Z" fill="black"/>
<path d="M62.1285 50.1834C63.4943 51.542 64.6906 53.0023 65.663 54.6673C65.6775 54.6934 65.7167 54.6761 65.7095 54.6469C65.2479 52.7018 63.6061 51.3896 62.1895 50.1224C62.1489 50.0846 62.0893 50.1442 62.1285 50.1834Z" fill="black"/>
<path d="M60.6391 61.5579C60.2428 61.5244 59.7319 61.5913 59.356 61.4767C59.0438 61.3808 58.8001 61.1109 58.6012 60.87C58.2107 60.3967 57.8305 59.9134 57.4457 59.4359C56.6444 58.443 55.8229 57.472 55.0057 56.4936C54.9838 56.4675 54.9359 56.5024 54.9579 56.5299C55.9202 57.8218 56.8696 59.1195 57.858 60.3924C58.176 60.8002 58.5228 61.4347 59.0324 61.6291C59.5202 61.8149 60.1414 61.6595 60.6422 61.5871C60.6595 61.584 60.6538 61.5593 60.6391 61.5579Z" fill="black"/>
<path d="M55.3484 48.3875C56.5501 49.0189 57.9306 49.0118 59.2444 48.8216C59.2966 48.8129 59.2807 48.7359 59.2327 48.7345C57.697 48.6562 56.3398 48.6301 54.9797 47.8098C53.8039 47.1001 52.6615 46.303 51.5279 45.5278C51.4887 45.5017 51.4538 45.5627 51.4901 45.5903C52.7515 46.5252 53.9518 47.656 55.3484 48.3875Z" fill="black"/>
<path d="M58.0872 71.379C57.5515 71.0045 56.9666 70.7185 56.4456 70.3223C55.9099 69.916 55.3946 69.4659 54.8881 69.0247C54.8432 68.9841 54.7763 69.0479 54.8214 69.0914C55.7606 70.0102 56.72 71.1308 58.0556 71.4531C58.1019 71.4647 58.1235 71.4052 58.0872 71.379Z" fill="black"/>
<path d="M56.9914 61.6462C57.3702 62.0744 57.6503 62.5114 57.4108 63.0846C57.2729 63.4112 57.1001 63.7262 56.9347 64.0383C56.6024 64.6654 56.2554 65.2852 55.9012 65.8992C55.8868 65.9253 55.9214 65.9543 55.9418 65.931C56.5008 65.2866 56.9784 64.5883 57.3672 63.8292C57.6285 63.3196 58.019 62.7231 57.7576 62.1454C57.4875 61.5458 56.798 61.0016 56.3596 60.5283C55.676 59.788 54.9575 59.0783 54.2794 58.3351C54.249 58.3016 54.2025 58.3496 54.2301 58.383C55.1654 59.4587 56.0451 60.5793 56.9914 61.6462Z" fill="black"/>
<path d="M44.6691 62.3547C44.855 61.2907 45.5169 60.1831 45.9174 59.1772C45.9276 59.1511 45.8839 59.1338 45.8709 59.1582C45.3017 60.2005 44.3091 61.5373 44.3323 62.7858C44.3541 63.9688 45.6663 64.9994 46.4458 65.7309C46.4821 65.7644 46.5473 65.7207 46.5167 65.6758C45.855 64.715 44.447 63.6132 44.6691 62.3547Z" fill="black"/>
<path d="M45.3499 55.3771C44.8462 53.9822 44.3483 52.5829 43.9782 51.1458C43.9695 51.1137 43.9215 51.127 43.9289 51.1602C44.1771 52.4144 44.4646 53.6423 44.8738 54.8545C45.0872 55.4844 45.3485 56.0911 45.2628 56.769C45.1845 57.3816 44.9028 57.9549 44.6794 58.5255C44.6692 58.553 44.7098 58.5646 44.7259 58.5442C45.5023 57.5371 45.7869 56.5907 45.3499 55.3771Z" fill="black"/>
<path d="M38.8513 59.4486C38.5391 58.4977 38.2213 57.5587 37.8294 56.6369C37.8164 56.6048 37.767 56.6281 37.7741 56.6615C38.0863 58.0434 38.5363 59.389 38.9832 60.7332C39.1836 61.3384 39.4012 62.1571 40.143 62.2297C40.1952 62.2356 40.2083 62.1599 40.1691 62.1369C39.3127 61.6202 39.1385 60.3282 38.8513 59.4486Z" fill="black"/>
</g>
<defs>
<clipPath id="clip0_4_2857">
<rect width="102" height="102" fill="white"/>
</clipPath>
</defs>
</svg>
